<?xml version="1.0" encoding="UTF-8"?>
<svg id="Ebene_1" xmlns="http://www.w3.org/2000/svg" xmlns:xlink="http://www.w3.org/1999/xlink" version="1.1" viewBox="0 0 60 60">
  <!-- Generator: Adobe Illustrator 29.2.1, SVG Export Plug-In . SVG Version: 2.1.0 Build 116)  -->
  <defs>
    <style>
      .st0 {
        fill: none;
      }

      .st1 {
        fill: #3f3c41;
      }

      .st2 {
        clip-path: url(#clippath);
      }
    </style>
    <clipPath id="clippath">
      <rect class="st0" width="60" height="60"/>
    </clipPath>
  </defs>
  <g class="st2">
    <path class="st1" d="M46.05,46.71c-.06.09-.26.37-.97.39H14.93c-.52-.05-.86-.18-1.02-.41-.35-.47-.09-1.64.04-2.27,1.21-5.62,5.11-10.37,10.22-12.48,3.63,1.96,8.02,1.96,11.65,0,4.46,1.85,8.06,5.75,9.69,10.55.37,1.09,1.14,3.35.54,4.22M47.02,41.94c-1.81-5.33-5.91-9.67-10.96-11.62l-.36-.14-.33.19c-3.31,1.92-7.42,1.92-10.73,0l-.33-.19-.36.14c-5.78,2.23-10.21,7.51-11.56,13.77-.27,1.27-.48,2.58.23,3.55.44.61,1.17.96,2.24,1.06h30.25c1.28-.04,1.94-.61,2.26-1.08,1.06-1.53.19-4.11-.35-5.68"/>
    <path class="st1" d="M22.57,17.6c1.33-2.85,3.99-4.6,7.1-4.69,3.16-.11,5.94,1.5,7.46,4.27,1.51,2.74,1.36,5.93-.39,8.52-1.47,2.17-3.84,3.47-6.5,3.57-2.64.11-5.09-1.02-6.69-3.07-1.93-2.45-2.3-5.75-.97-8.59M29.92,30.86c.12,0,.25,0,.37,0,3.18-.12,6.01-1.67,7.77-4.27,2.09-3.1,2.27-6.91.46-10.18-1.79-3.25-5.2-5.21-8.91-5.09-3.73.11-6.91,2.21-8.5,5.62-1.59,3.4-1.14,7.33,1.16,10.26,1.85,2.35,4.62,3.68,7.64,3.68"/>
  </g>
</svg>